<?xml version="1.0" encoding="UTF-8" standalone="no"?>
<!DOCTYPE svg PUBLIC "-//W3C//DTD SVG 1.1//EN"
 "http://www.w3.org/Graphics/SVG/1.1/DTD/svg11.dtd">
<!-- Generated by graphviz version 2.40.1 (20161225.0304)
 -->
<!-- Title: tree Pages: 1 -->
<svg width="823pt" height="720pt"
 viewBox="0.00 0.00 823.39 719.80" xmlns="http://www.w3.org/2000/svg" xmlns:xlink="http://www.w3.org/1999/xlink">
<g id="graph0" class="graph" transform="scale(1 1) rotate(0) translate(4 715.8)">
<title>tree</title>
<polygon fill="#ffffff" stroke="transparent" points="-4,4 -4,-715.8 819.3871,-715.8 819.3871,4 -4,4"/>
<!-- root -->
<g id="node1" class="node">
<title>root</title>
<polygon fill="none" stroke="#000000" points="76.2322,-461.5442 76.2322,-476.4558 53.8816,-487 22.2731,-487 -.0775,-476.4558 -.0775,-461.5442 22.2731,-451 53.8816,-451 76.2322,-461.5442"/>
<text text-anchor="middle" x="38.0773" y="-464.8" font-family="Times,serif" font-size="14.00" fill="#000000">开始</text>
</g>
<!-- root1210 -->
<g id="node2" class="node">
<title>root1210</title>
<text text-anchor="middle" x="167.1547" y="-486.8" font-family="Times,serif" font-size="14.00" fill="#000000">♻️</text>
</g>
<!-- root&#45;&gt;root1210 -->
<g id="edge1" class="edge">
<title>root&#45;&gt;root1210</title>
<path fill="none" stroke="#d3d3d3" stroke-dasharray="1,5" d="M76.4553,-475.5412C98.5705,-479.3105 125.619,-483.9206 144.3946,-487.1208"/>
<polyline fill="none" stroke="#d3d3d3" points="154.3935,-488.825 144.5357,-487.1447 "/>
<path fill="none" stroke="#d3d3d3" d="M150.3047,-483.0559C156.8346,-484.1761 155.2384,-494.0339 148.6245,-492.9138"/>
<text text-anchor="middle" x="108.1547" y="-487.2" font-family="Times,serif" font-size="14.00" fill="#000000">1210</text>
</g>
<!-- root3343 -->
<g id="node3" class="node">
<title>root3343</title>
<polygon fill="none" stroke="#0000ff" points="140.1547,-428 140.1547,-464 194.1547,-464 194.1547,-428 140.1547,-428"/>
<text text-anchor="middle" x="167.1547" y="-441.9" font-family="Times,serif" font-size="14.00" fill="#000000">39.84</text>
</g>
<!-- root&#45;&gt;root3343 -->
<g id="edge2" class="edge">
<title>root&#45;&gt;root3343</title>
<path fill="none" stroke="#32cd32" d="M75.1227,-460.9036C81.4603,-459.6049 87.988,-458.321 94.1547,-457.2 105.7449,-455.0931 118.4183,-453.0559 129.9046,-451.3098"/>
<polygon fill="#32cd32" stroke="#32cd32" points="130.681,-454.7328 140.0545,-449.7944 129.6472,-447.8095 130.681,-454.7328"/>
<text text-anchor="middle" x="108.1547" y="-461.2" font-family="Times,serif" font-size="14.00" fill="#000000">3343</text>
</g>
<!-- root33434030 -->
<g id="node4" class="node">
<title>root33434030</title>
<polygon fill="none" stroke="#ff0000" points="258.1547,-623 258.1547,-659 312.1547,-659 312.1547,-623 258.1547,-623"/>
<text text-anchor="middle" x="285.1547" y="-636.9" font-family="Times,serif" font-size="14.00" fill="#000000">39.84</text>
</g>
<!-- root3343&#45;&gt;root33434030 -->
<g id="edge3" class="edge">
<title>root3343&#45;&gt;root33434030</title>
<path fill="none" stroke="#32cd32" d="M186.4847,-464.1538C189.2619,-467.2785 191.928,-470.6149 194.1547,-474 205.5403,-491.309 202.878,-498.4749 212.1547,-517 229.4889,-551.6156 252.5872,-589.7614 268.1189,-614.4788"/>
<polygon fill="#32cd32" stroke="#32cd32" points="265.1708,-616.3654 273.4741,-622.9462 271.087,-612.6238 265.1708,-616.3654"/>
<text text-anchor="middle" x="226.1547" y="-569.2" font-family="Times,serif" font-size="14.00" fill="#000000">4030</text>
</g>
<!-- root33434130 -->
<g id="node8" class="node">
<title>root33434130</title>
<polygon fill="none" stroke="#ff0000" points="258.1547,-513 258.1547,-549 312.1547,-549 312.1547,-513 258.1547,-513"/>
<text text-anchor="middle" x="285.1547" y="-526.9" font-family="Times,serif" font-size="14.00" fill="#000000">39.96</text>
</g>
<!-- root3343&#45;&gt;root33434130 -->
<g id="edge7" class="edge">
<title>root3343&#45;&gt;root33434130</title>
<path fill="none" stroke="#32cd32" d="M192.1794,-464.0263C209.5449,-476.5353 232.867,-493.3352 251.8085,-506.9795"/>
<polygon fill="#32cd32" stroke="#32cd32" points="250.0062,-509.9947 260.166,-512.9997 254.0976,-504.3149 250.0062,-509.9947"/>
<text text-anchor="middle" x="226.1547" y="-500.2" font-family="Times,serif" font-size="14.00" fill="#000000">4130</text>
</g>
<!-- root33434132 -->
<g id="node14" class="node">
<title>root33434132</title>
<polygon fill="none" stroke="#ff0000" points="258.1547,-428 258.1547,-464 312.1547,-464 312.1547,-428 258.1547,-428"/>
<text text-anchor="middle" x="285.1547" y="-441.9" font-family="Times,serif" font-size="14.00" fill="#000000">39.96</text>
</g>
<!-- root3343&#45;&gt;root33434132 -->
<g id="edge13" class="edge">
<title>root3343&#45;&gt;root33434132</title>
<path fill="none" stroke="#32cd32" d="M194.2263,-446C210.0035,-446 230.1399,-446 247.4511,-446"/>
<polygon fill="#32cd32" stroke="#32cd32" points="247.8005,-449.5001 257.8004,-446 247.8004,-442.5001 247.8005,-449.5001"/>
<text text-anchor="middle" x="226.1547" y="-450.2" font-family="Times,serif" font-size="14.00" fill="#000000">4132</text>
</g>
<!-- root33434150 -->
<g id="node23" class="node">
<title>root33434150</title>
<polygon fill="none" stroke="#ff0000" points="258.1547,-327 258.1547,-363 312.1547,-363 312.1547,-327 258.1547,-327"/>
<text text-anchor="middle" x="285.1547" y="-340.9" font-family="Times,serif" font-size="14.00" fill="#000000">39.96</text>
</g>
<!-- root3343&#45;&gt;root33434150 -->
<g id="edge22" class="edge">
<title>root3343&#45;&gt;root33434150</title>
<path fill="none" stroke="#32cd32" d="M188.2507,-427.9432C207.1783,-411.7425 235.1315,-387.8165 256.1574,-369.8197"/>
<polygon fill="#32cd32" stroke="#32cd32" points="258.5222,-372.4026 263.8434,-363.241 253.9704,-367.0846 258.5222,-372.4026"/>
<text text-anchor="middle" x="226.1547" y="-408.2" font-family="Times,serif" font-size="14.00" fill="#000000">4150</text>
</g>
<!-- root33434152 -->
<g id="node32" class="node">
<title>root33434152</title>
<polygon fill="none" stroke="#ff0000" points="258.1547,-178 258.1547,-214 312.1547,-214 312.1547,-178 258.1547,-178"/>
<text text-anchor="middle" x="285.1547" y="-191.9" font-family="Times,serif" font-size="14.00" fill="#000000">39.96</text>
</g>
<!-- root3343&#45;&gt;root33434152 -->
<g id="edge31" class="edge">
<title>root3343&#45;&gt;root33434152</title>
<path fill="none" stroke="#32cd32" d="M175.8315,-427.6169C196.3821,-384.0776 248.1106,-274.4832 272.3051,-223.2236"/>
<polygon fill="#32cd32" stroke="#32cd32" points="275.5209,-224.6101 276.6243,-214.0729 269.1907,-221.6222 275.5209,-224.6101"/>
<text text-anchor="middle" x="226.1547" y="-347.2" font-family="Times,serif" font-size="14.00" fill="#000000">4152</text>
</g>
<!-- root334340301210 -->
<g id="node5" class="node">
<title>root334340301210</title>
<text text-anchor="middle" x="458.6288" y="-697.8" font-family="Times,serif" font-size="14.00" fill="#000000">♻️</text>
</g>
<!-- root33434030&#45;&gt;root334340301210 -->
<g id="edge4" class="edge">
<title>root33434030&#45;&gt;root334340301210</title>
<path fill="none" stroke="#d3d3d3" stroke-dasharray="1,5" d="M304.4554,-659.1863C311.9724,-665.3764 320.9799,-671.7883 330.1547,-676 364.7189,-691.867 408.9082,-698.0979 435.4246,-700.5119"/>
<polyline fill="none" stroke="#d3d3d3" points="445.6271,-701.3298 435.6591,-700.5307 "/>
<path fill="none" stroke="#d3d3d3" d="M441.0427,-695.9462C447.6681,-696.479 446.9089,-706.447 440.2435,-705.9142"/>
<text text-anchor="middle" x="364.181" y="-699.2" font-family="Times,serif" font-size="14.00" fill="#000000">1210</text>
</g>
<!-- root334340301232 -->
<g id="node6" class="node">
<title>root334340301232</title>
<text text-anchor="middle" x="458.6288" y="-659.8" font-family="Times,serif" font-size="14.00" fill="#000000">♻️</text>
</g>
<!-- root33434030&#45;&gt;root334340301232 -->
<g id="edge5" class="edge">
<title>root33434030&#45;&gt;root334340301232</title>
<path fill="none" stroke="#d3d3d3" stroke-dasharray="1,5" d="M312.26,-644.5938C346.1863,-649.0918 403.7034,-656.7177 435.5991,-660.9466"/>
<polyline fill="none" stroke="#d3d3d3" points="445.7318,-662.2901 435.8186,-660.9756 "/>
<path fill="none" stroke="#d3d3d3" d="M441.4324,-656.6762C448.0084,-657.5525 446.7597,-667.4657 440.118,-666.5895"/>
<text text-anchor="middle" x="364.181" y="-659.2" font-family="Times,serif" font-size="14.00" fill="#000000">1232</text>
</g>
<!-- root334340304348 -->
<g id="node7" class="node">
<title>root334340304348</title>
<ellipse fill="none" stroke="#0000ff" cx="458.6288" cy="-620" rx="42.3433" ry="18"/>
<text text-anchor="middle" x="458.6288" y="-615.8" font-family="Times,serif" font-size="14.00" fill="#000000"> 39.84✅</text>
</g>
<!-- root33434030&#45;&gt;root334340304348 -->
<g id="edge6" class="edge">
<title>root33434030&#45;&gt;root334340304348</title>
<path fill="none" stroke="#32cd32" d="M312.2917,-628.5017C318.0743,-626.3422 324.2271,-624.4064 330.1547,-623.2 354.9131,-618.161 382.9069,-616.9538 406.429,-617.1745"/>
<polygon fill="#32cd32" stroke="#32cd32" points="406.4909,-620.6761 416.5529,-617.3585 406.6182,-613.6773 406.4909,-620.6761"/>
<text text-anchor="middle" x="364.181" y="-627.2" font-family="Times,serif" font-size="14.00" fill="#000000">4348得车</text>
</g>
<!-- root334341301242 -->
<g id="node9" class="node">
<title>root334341301242</title>
<text text-anchor="middle" x="458.6288" y="-571.8" font-family="Times,serif" font-size="14.00" fill="#000000">♻️</text>
</g>
<!-- root33434130&#45;&gt;root334341301242 -->
<g id="edge8" class="edge">
<title>root33434130&#45;&gt;root334341301242</title>
<path fill="none" stroke="#d3d3d3" stroke-dasharray="1,5" d="M312.3185,-545.0103C318.0991,-547.6113 324.2444,-550.1025 330.1547,-552 366.0718,-563.5311 409.5213,-570.207 435.5722,-573.4707"/>
<polyline fill="none" stroke="#d3d3d3" points="445.599,-574.6647 435.6692,-573.4821 "/>
<path fill="none" stroke="#d3d3d3" d="M441.2254,-569.1085C447.8157,-569.8969 446.6923,-579.8267 440.0428,-579.0383"/>
<text text-anchor="middle" x="364.181" y="-571.2" font-family="Times,serif" font-size="14.00" fill="#000000">1242</text>
</g>
<!-- root334341304348 -->
<g id="node10" class="node">
<title>root334341304348</title>
<polygon fill="none" stroke="#0000ff" points="431.6288,-513 431.6288,-549 485.6288,-549 485.6288,-513 431.6288,-513"/>
<text text-anchor="middle" x="458.6288" y="-526.9" font-family="Times,serif" font-size="14.00" fill="#000000">39.96</text>
</g>
<!-- root33434130&#45;&gt;root334341304348 -->
<g id="edge9" class="edge">
<title>root33434130&#45;&gt;root334341304348</title>
<path fill="none" stroke="#32cd32" d="M312.26,-531C341.5813,-531 388.5241,-531 421.3182,-531"/>
<polygon fill="#32cd32" stroke="#32cd32" points="421.4282,-534.5001 431.4282,-531 421.4281,-527.5001 421.4282,-534.5001"/>
<text text-anchor="middle" x="364.181" y="-535.2" font-family="Times,serif" font-size="14.00" fill="#000000">4348</text>
</g>
<!-- root3343413043483041 -->
<g id="node11" class="node">
<title>root3343413043483041</title>
<polygon fill="none" stroke="#ff0000" points="565.3004,-513 565.3004,-549 619.3004,-549 619.3004,-513 565.3004,-513"/>
<text text-anchor="middle" x="592.3004" y="-526.9" font-family="Times,serif" font-size="14.00" fill="#000000">39.96</text>
</g>
<!-- root334341304348&#45;&gt;root3343413043483041 -->
<g id="edge10" class="edge">
<title>root334341304348&#45;&gt;root3343413043483041</title>
<path fill="none" stroke="#32cd32" d="M485.6793,-531C505.7,-531 533.2093,-531 555.2701,-531"/>
<polygon fill="#32cd32" stroke="#32cd32" points="555.2903,-534.5001 565.2902,-531 555.2902,-527.5001 555.2903,-534.5001"/>
<text text-anchor="middle" x="533.0504" y="-535.2" font-family="Times,serif" font-size="14.00" fill="#000000">3041</text>
</g>
<!-- root33434130434830411210 -->
<g id="node12" class="node">
<title>root33434130434830411210</title>
<text text-anchor="middle" x="768.1371" y="-565.8" font-family="Times,serif" font-size="14.00" fill="#000000">♻️</text>
</g>
<!-- root3343413043483041&#45;&gt;root33434130434830411210 -->
<g id="edge11" class="edge">
<title>root3343413043483041&#45;&gt;root33434130434830411210</title>
<path fill="none" stroke="#d3d3d3" stroke-dasharray="1,5" d="M619.3012,-542.1105C625.2434,-544.2827 631.5541,-546.3847 637.5504,-548 674.6512,-557.9944 718.9655,-564.3157 745.2629,-567.5001"/>
<polyline fill="none" stroke="#d3d3d3" points="755.3566,-568.6744 745.4236,-567.5187 "/>
<path fill="none" stroke="#d3d3d3" d="M750.9679,-563.1301C757.5611,-563.9005 756.4632,-573.8335 749.8123,-573.0631"/>
<text text-anchor="middle" x="670.2187" y="-565.2" font-family="Times,serif" font-size="14.00" fill="#000000">1210</text>
</g>
<!-- root33434130434830414841 -->
<g id="node13" class="node">
<title>root33434130434830414841</title>
<ellipse fill="none" stroke="#0000ff" cx="768.1371" cy="-526" rx="42.3433" ry="18"/>
<text text-anchor="middle" x="768.1371" y="-521.8" font-family="Times,serif" font-size="14.00" fill="#000000"> 39.96✅</text>
</g>
<!-- root3343413043483041&#45;&gt;root33434130434830414841 -->
<g id="edge12" class="edge">
<title>root3343413043483041&#45;&gt;root33434130434830414841</title>
<path fill="none" stroke="#32cd32" d="M619.3895,-530.2297C644.8356,-529.5061 683.6159,-528.4034 715.1997,-527.5053"/>
<polygon fill="#32cd32" stroke="#32cd32" points="715.7088,-530.9923 725.6052,-527.2094 715.5097,-523.9952 715.7088,-530.9923"/>
<text text-anchor="middle" x="670.2187" y="-533.2" font-family="Times,serif" font-size="14.00" fill="#000000">4841多得士</text>
</g>
<!-- root334341321210 -->
<g id="node15" class="node">
<title>root334341321210</title>
<text text-anchor="middle" x="458.6288" y="-481.8" font-family="Times,serif" font-size="14.00" fill="#000000">♻️</text>
</g>
<!-- root33434132&#45;&gt;root334341321210 -->
<g id="edge14" class="edge">
<title>root33434132&#45;&gt;root334341321210</title>
<path fill="none" stroke="#d3d3d3" stroke-dasharray="1,5" d="M312.4419,-457.9793C318.2136,-460.2109 324.3241,-462.3546 330.1547,-464 366.3616,-474.2177 409.7245,-480.4426 435.6791,-483.5515"/>
<polyline fill="none" stroke="#d3d3d3" points="445.6651,-484.6956 435.7301,-483.5572 "/>
<path fill="none" stroke="#d3d3d3" d="M441.2668,-479.1589C447.8616,-479.9179 446.7802,-489.8529 440.1284,-489.0939"/>
<text text-anchor="middle" x="364.181" y="-482.2" font-family="Times,serif" font-size="14.00" fill="#000000">1210</text>
</g>
<!-- root334341321232 -->
<g id="node16" class="node">
<title>root334341321232</title>
<text text-anchor="middle" x="458.6288" y="-446.8" font-family="Times,serif" font-size="14.00" fill="#000000">♻️</text>
</g>
<!-- root33434132&#45;&gt;root334341321232 -->
<g id="edge15" class="edge">
<title>root33434132&#45;&gt;root334341321232</title>
<path fill="none" stroke="#d3d3d3" stroke-dasharray="1,5" d="M312.5776,-445.8911C335.478,-445.8962 368.9808,-446.1266 398.2073,-447.2 410.4964,-447.6514 424.1732,-448.4839 435.4023,-449.2549"/>
<polyline fill="none" stroke="#d3d3d3" points="445.6735,-449.989 435.699,-449.276 "/>
<path fill="none" stroke="#d3d3d3" d="M441.0427,-444.6452C447.6746,-445.1205 446.9973,-455.0951 440.3298,-454.6198"/>
<text text-anchor="middle" x="364.181" y="-451.2" font-family="Times,serif" font-size="14.00" fill="#000000">1232</text>
</g>
<!-- root334341324348 -->
<g id="node17" class="node">
<title>root334341324348</title>
<polygon fill="none" stroke="#0000ff" points="431.6288,-388 431.6288,-424 485.6288,-424 485.6288,-388 431.6288,-388"/>
<text text-anchor="middle" x="458.6288" y="-401.9" font-family="Times,serif" font-size="14.00" fill="#000000">39.96</text>
</g>
<!-- root33434132&#45;&gt;root334341324348 -->
<g id="edge16" class="edge">
<title>root33434132&#45;&gt;root334341324348</title>
<path fill="none" stroke="#32cd32" d="M312.2125,-431.2282C318.0008,-428.5446 324.1761,-426.0227 330.1547,-424.2 360.0778,-415.0771 395.3411,-410.4962 421.3461,-408.2142"/>
<polygon fill="#32cd32" stroke="#32cd32" points="421.8419,-411.6857 431.5294,-407.396 421.2812,-404.7082 421.8419,-411.6857"/>
<text text-anchor="middle" x="364.181" y="-428.2" font-family="Times,serif" font-size="14.00" fill="#000000">4348</text>
</g>
<!-- root3343413243483241 -->
<g id="node18" class="node">
<title>root3343413243483241</title>
<polygon fill="none" stroke="#ff0000" points="565.3004,-412 565.3004,-448 619.3004,-448 619.3004,-412 565.3004,-412"/>
<text text-anchor="middle" x="592.3004" y="-425.9" font-family="Times,serif" font-size="14.00" fill="#000000">39.96</text>
</g>
<!-- root334341324348&#45;&gt;root3343413243483241 -->
<g id="edge17" class="edge">
<title>root334341324348&#45;&gt;root3343413243483241</title>
<path fill="none" stroke="#32cd32" d="M485.6793,-410.8568C505.7,-414.4514 533.2093,-419.3905 555.2701,-423.3514"/>
<polygon fill="#32cd32" stroke="#32cd32" points="554.8291,-426.8281 565.2902,-425.1505 556.0661,-419.9383 554.8291,-426.8281"/>
<text text-anchor="middle" x="533.0504" y="-425.2" font-family="Times,serif" font-size="14.00" fill="#000000">3241</text>
</g>
<!-- root3343413243484030 -->
<g id="node21" class="node">
<title>root3343413243484030</title>
<polygon fill="none" stroke="#ff0000" points="565.0504,-357 565.0504,-393 619.5504,-393 619.5504,-357 565.0504,-357"/>
<text text-anchor="middle" x="592.3004" y="-370.9" font-family="Times,serif" font-size="14.00" fill="#000000">278.52</text>
</g>
<!-- root334341324348&#45;&gt;root3343413243484030 -->
<g id="edge20" class="edge">
<title>root334341324348&#45;&gt;root3343413243484030</title>
<path fill="none" stroke="#32cd32" d="M485.6793,-399.7267C505.5683,-395.1142 532.8476,-388.7878 554.834,-383.6889"/>
<polygon fill="#32cd32" stroke="#32cd32" points="555.8807,-387.0391 564.8314,-381.3704 554.2992,-380.2201 555.8807,-387.0391"/>
<text text-anchor="middle" x="533.0504" y="-395.2" font-family="Times,serif" font-size="14.00" fill="#000000">4030</text>
</g>
<!-- root33434132434832411210 -->
<g id="node19" class="node">
<title>root33434132434832411210</title>
<text text-anchor="middle" x="768.1371" y="-468.8" font-family="Times,serif" font-size="14.00" fill="#000000">♻️</text>
</g>
<!-- root3343413243483241&#45;&gt;root33434132434832411210 -->
<g id="edge18" class="edge">
<title>root3343413243483241&#45;&gt;root33434132434832411210</title>
<path fill="none" stroke="#d3d3d3" stroke-dasharray="1,5" d="M619.6563,-443.355C625.4661,-445.8312 631.6339,-448.2005 637.5504,-450 674.3582,-461.1949 718.7621,-467.5754 745.157,-470.6563"/>
<polyline fill="none" stroke="#d3d3d3" points="755.2919,-471.7791 745.3527,-470.6779 "/>
<path fill="none" stroke="#d3d3d3" d="M750.8729,-466.2589C757.4715,-466.9931 756.4253,-476.9323 749.7717,-476.1981"/>
<text text-anchor="middle" x="670.2187" y="-468.2" font-family="Times,serif" font-size="14.00" fill="#000000">1210</text>
</g>
<!-- root33434132434832414841 -->
<g id="node20" class="node">
<title>root33434132434832414841</title>
<ellipse fill="none" stroke="#0000ff" cx="768.1371" cy="-429" rx="42.3433" ry="18"/>
<text text-anchor="middle" x="768.1371" y="-424.8" font-family="Times,serif" font-size="14.00" fill="#000000"> 39.96✅</text>
</g>
<!-- root3343413243483241&#45;&gt;root33434132434832414841 -->
<g id="edge19" class="edge">
<title>root3343413243483241&#45;&gt;root33434132434832414841</title>
<path fill="none" stroke="#32cd32" d="M619.3895,-429.8459C644.8356,-429.7012 683.6159,-429.4807 715.1997,-429.3011"/>
<polygon fill="#32cd32" stroke="#32cd32" points="715.6253,-432.7988 725.6052,-429.2419 715.5854,-425.7989 715.6253,-432.7988"/>
<text text-anchor="middle" x="670.2187" y="-433.2" font-family="Times,serif" font-size="14.00" fill="#000000">4841多得士</text>
</g>
<!-- root33434132434840301232 -->
<g id="node22" class="node">
<title>root33434132434840301232</title>
<ellipse fill="none" stroke="#0000ff" cx="768.1371" cy="-375" rx="47.0014" ry="18"/>
<text text-anchor="middle" x="768.1371" y="-370.8" font-family="Times,serif" font-size="14.00" fill="#000000"> 278.52✅</text>
</g>
<!-- root3343413243484030&#45;&gt;root33434132434840301232 -->
<g id="edge21" class="edge">
<title>root3343413243484030&#45;&gt;root33434132434840301232</title>
<path fill="none" stroke="#32cd32" d="M619.7749,-375C643.9865,-375 680.0517,-375 710.5606,-375"/>
<polygon fill="#32cd32" stroke="#32cd32" points="710.669,-378.5001 720.669,-375 710.669,-371.5001 710.669,-378.5001"/>
<text text-anchor="middle" x="670.2187" y="-379.2" font-family="Times,serif" font-size="14.00" fill="#000000">1232将死</text>
</g>
<!-- root334341501210 -->
<g id="node24" class="node">
<title>root334341501210</title>
<text text-anchor="middle" x="458.6288" y="-356.8" font-family="Times,serif" font-size="14.00" fill="#000000">♻️</text>
</g>
<!-- root33434150&#45;&gt;root334341501210 -->
<g id="edge23" class="edge">
<title>root33434150&#45;&gt;root334341501210</title>
<path fill="none" stroke="#d3d3d3" stroke-dasharray="1,5" d="M312.26,-347.5C346.1863,-350.6291 403.7034,-355.9341 435.5991,-358.8759"/>
<polyline fill="none" stroke="#d3d3d3" points="445.7318,-359.8105 435.7741,-358.892 "/>
<path fill="none" stroke="#d3d3d3" d="M441.2122,-354.3723C447.8277,-354.9847 446.9551,-364.9424 440.2937,-364.3301"/>
<text text-anchor="middle" x="364.181" y="-359.2" font-family="Times,serif" font-size="14.00" fill="#000000">1210</text>
</g>
<!-- root334341501242 -->
<g id="node25" class="node">
<title>root334341501242</title>
<text text-anchor="middle" x="458.6288" y="-321.8" font-family="Times,serif" font-size="14.00" fill="#000000">♻️</text>
</g>
<!-- root33434150&#45;&gt;root334341501242 -->
<g id="edge24" class="edge">
<title>root33434150&#45;&gt;root334341501242</title>
<path fill="none" stroke="#d3d3d3" stroke-dasharray="1,5" d="M312.3355,-333.1712C318.1149,-331.1354 324.2554,-329.3175 330.1547,-328.2 366.4307,-321.3281 409.5006,-322.4222 435.4169,-324.0544"/>
<polyline fill="none" stroke="#d3d3d3" points="445.7179,-324.7902 435.7433,-324.0776 "/>
<path fill="none" stroke="#d3d3d3" d="M441.0869,-319.4466C447.7188,-319.9217 447.0418,-329.8963 440.3743,-329.4212"/>
<text text-anchor="middle" x="364.181" y="-332.2" font-family="Times,serif" font-size="14.00" fill="#000000">1242</text>
</g>
<!-- root334341504348 -->
<g id="node26" class="node">
<title>root334341504348</title>
<polygon fill="none" stroke="#0000ff" points="431.6288,-263 431.6288,-299 485.6288,-299 485.6288,-263 431.6288,-263"/>
<text text-anchor="middle" x="458.6288" y="-276.9" font-family="Times,serif" font-size="14.00" fill="#000000">39.96</text>
</g>
<!-- root33434150&#45;&gt;root334341504348 -->
<g id="edge25" class="edge">
<title>root33434150&#45;&gt;root334341504348</title>
<path fill="none" stroke="#32cd32" d="M299.066,-326.8985C307.1291,-317.7144 318.0648,-307.2491 330.1547,-301.2 358.6761,-286.9296 394.8359,-282.2572 421.5221,-280.9357"/>
<polygon fill="#32cd32" stroke="#32cd32" points="421.7412,-284.4301 431.6085,-280.5719 421.4888,-277.4347 421.7412,-284.4301"/>
<text text-anchor="middle" x="364.181" y="-305.2" font-family="Times,serif" font-size="14.00" fill="#000000">4348</text>
</g>
<!-- root3343415043484030 -->
<g id="node27" class="node">
<title>root3343415043484030</title>
<polygon fill="none" stroke="#ff0000" points="565.0504,-300 565.0504,-336 619.5504,-336 619.5504,-300 565.0504,-300"/>
<text text-anchor="middle" x="592.3004" y="-313.9" font-family="Times,serif" font-size="14.00" fill="#000000">278.33</text>
</g>
<!-- root334341504348&#45;&gt;root3343415043484030 -->
<g id="edge26" class="edge">
<title>root334341504348&#45;&gt;root3343415043484030</title>
<path fill="none" stroke="#32cd32" d="M485.6793,-288.4875C505.6583,-294.0176 533.0946,-301.612 555.1322,-307.7119"/>
<polygon fill="#32cd32" stroke="#32cd32" points="554.2601,-311.1021 564.8314,-310.3966 556.1275,-304.3557 554.2601,-311.1021"/>
<text text-anchor="middle" x="533.0504" y="-308.2" font-family="Times,serif" font-size="14.00" fill="#000000">4030</text>
</g>
<!-- root3343415043485041 -->
<g id="node29" class="node">
<title>root3343415043485041</title>
<polygon fill="none" stroke="#ff0000" points="565.3004,-245 565.3004,-281 619.3004,-281 619.3004,-245 565.3004,-245"/>
<text text-anchor="middle" x="592.3004" y="-258.9" font-family="Times,serif" font-size="14.00" fill="#000000">39.96</text>
</g>
<!-- root334341504348&#45;&gt;root3343415043485041 -->
<g id="edge28" class="edge">
<title>root334341504348&#45;&gt;root3343415043485041</title>
<path fill="none" stroke="#32cd32" d="M485.6793,-277.3574C505.7,-274.6615 533.2093,-270.9571 555.2701,-267.9864"/>
<polygon fill="#32cd32" stroke="#32cd32" points="555.8468,-271.4405 565.2902,-266.6372 554.9125,-264.5031 555.8468,-271.4405"/>
<text text-anchor="middle" x="533.0504" y="-276.2" font-family="Times,serif" font-size="14.00" fill="#000000">5041</text>
</g>
<!-- root33434150434840301232 -->
<g id="node28" class="node">
<title>root33434150434840301232</title>
<ellipse fill="none" stroke="#0000ff" cx="768.1371" cy="-318" rx="47.0014" ry="18"/>
<text text-anchor="middle" x="768.1371" y="-313.8" font-family="Times,serif" font-size="14.00" fill="#000000"> 278.33✅</text>
</g>
<!-- root3343415043484030&#45;&gt;root33434150434840301232 -->
<g id="edge27" class="edge">
<title>root3343415043484030&#45;&gt;root33434150434840301232</title>
<path fill="none" stroke="#32cd32" d="M619.7749,-318C643.9865,-318 680.0517,-318 710.5606,-318"/>
<polygon fill="#32cd32" stroke="#32cd32" points="710.669,-321.5001 720.669,-318 710.669,-314.5001 710.669,-321.5001"/>
<text text-anchor="middle" x="670.2187" y="-322.2" font-family="Times,serif" font-size="14.00" fill="#000000">1232将死</text>
</g>
<!-- root33434150434850411210 -->
<g id="node30" class="node">
<title>root33434150434850411210</title>
<text text-anchor="middle" x="768.1371" y="-266.8" font-family="Times,serif" font-size="14.00" fill="#000000">♻️</text>
</g>
<!-- root3343415043485041&#45;&gt;root33434150434850411210 -->
<g id="edge29" class="edge">
<title>root3343415043485041&#45;&gt;root33434150434850411210</title>
<path fill="none" stroke="#d3d3d3" stroke-dasharray="1,5" d="M619.3895,-264.2325C653.8595,-265.8007 712.7981,-268.4823 745.1705,-269.9551"/>
<polyline fill="none" stroke="#d3d3d3" points="755.4295,-270.4218 745.4398,-269.9673 "/>
<path fill="none" stroke="#d3d3d3" d="M750.6619,-265.1997C757.3103,-265.5028 756.8785,-275.4924 750.2073,-275.1894"/>
<text text-anchor="middle" x="670.2187" y="-271.2" font-family="Times,serif" font-size="14.00" fill="#000000">1210</text>
</g>
<!-- root33434150434850414841 -->
<g id="node31" class="node">
<title>root33434150434850414841</title>
<ellipse fill="none" stroke="#0000ff" cx="768.1371" cy="-227" rx="42.3433" ry="18"/>
<text text-anchor="middle" x="768.1371" y="-222.8" font-family="Times,serif" font-size="14.00" fill="#000000"> 39.96✅</text>
</g>
<!-- root3343415043485041&#45;&gt;root33434150434850414841 -->
<g id="edge30" class="edge">
<title>root3343415043485041&#45;&gt;root33434150434850414841</title>
<path fill="none" stroke="#32cd32" d="M619.6581,-250.2869C625.4677,-247.9707 631.635,-245.7886 637.5504,-244.2 662.9615,-237.3757 691.9106,-233.2113 716.0839,-230.6943"/>
<polygon fill="#32cd32" stroke="#32cd32" points="716.5147,-234.1689 726.1272,-229.7135 715.8343,-227.2021 716.5147,-234.1689"/>
<text text-anchor="middle" x="670.2187" y="-248.2" font-family="Times,serif" font-size="14.00" fill="#000000">4841将死</text>
</g>
<!-- root334341521210 -->
<g id="node33" class="node">
<title>root334341521210</title>
<text text-anchor="middle" x="458.6288" y="-231.8" font-family="Times,serif" font-size="14.00" fill="#000000">♻️</text>
</g>
<!-- root33434152&#45;&gt;root334341521210 -->
<g id="edge32" class="edge">
<title>root33434152&#45;&gt;root334341521210</title>
<path fill="none" stroke="#d3d3d3" stroke-dasharray="1,5" d="M312.4419,-207.9793C318.2136,-210.2109 324.3241,-212.3546 330.1547,-214 366.3616,-224.2177 409.7245,-230.4426 435.6791,-233.5515"/>
<polyline fill="none" stroke="#d3d3d3" points="445.6651,-234.6956 435.7301,-233.5572 "/>
<path fill="none" stroke="#d3d3d3" d="M441.2668,-229.1589C447.8616,-229.9179 446.7802,-239.8529 440.1284,-239.0939"/>
<text text-anchor="middle" x="364.181" y="-232.2" font-family="Times,serif" font-size="14.00" fill="#000000">1210</text>
</g>
<!-- root334341521242 -->
<g id="node34" class="node">
<title>root334341521242</title>
<text text-anchor="middle" x="458.6288" y="-191.8" font-family="Times,serif" font-size="14.00" fill="#000000">♻️</text>
</g>
<!-- root33434152&#45;&gt;root334341521242 -->
<g id="edge33" class="edge">
<title>root33434152&#45;&gt;root334341521242</title>
<path fill="none" stroke="#d3d3d3" stroke-dasharray="1,5" d="M312.26,-196C346.1863,-196 403.7034,-196 435.5991,-196"/>
<polyline fill="none" stroke="#d3d3d3" points="445.7318,-196 435.7318,-196.0001 "/>
<path fill="none" stroke="#d3d3d3" d="M440.7318,-191C447.3984,-191 447.3985,-201 440.7319,-201"/>
<text text-anchor="middle" x="364.181" y="-200.2" font-family="Times,serif" font-size="14.00" fill="#000000">1242</text>
</g>
<!-- root334341521252 -->
<g id="node35" class="node">
<title>root334341521252</title>
<text text-anchor="middle" x="458.6288" y="-151.8" font-family="Times,serif" font-size="14.00" fill="#000000">♻️</text>
</g>
<!-- root33434152&#45;&gt;root334341521252 -->
<g id="edge34" class="edge">
<title>root33434152&#45;&gt;root334341521252</title>
<path fill="none" stroke="#d3d3d3" stroke-dasharray="1,5" d="M312.2772,-181.9628C318.0608,-179.3982 324.2178,-176.9759 330.1547,-175.2 366.0751,-164.4551 409.5236,-159.5686 435.5735,-157.463"/>
<polyline fill="none" stroke="#d3d3d3" points="445.5998,-156.7218 435.627,-157.4591 "/>
<path fill="none" stroke="#d3d3d3" d="M440.2448,-152.1041C446.9117,-151.6126 447.6121,-161.5854 440.982,-162.0769"/>
<text text-anchor="middle" x="364.181" y="-179.2" font-family="Times,serif" font-size="14.00" fill="#000000">1252</text>
</g>
<!-- root334341524348 -->
<g id="node36" class="node">
<title>root334341524348</title>
<polygon fill="none" stroke="#0000ff" points="431.6288,-93 431.6288,-129 485.6288,-129 485.6288,-93 431.6288,-93"/>
<text text-anchor="middle" x="458.6288" y="-106.9" font-family="Times,serif" font-size="14.00" fill="#000000">39.96</text>
</g>
<!-- root33434152&#45;&gt;root334341524348 -->
<g id="edge35" class="edge">
<title>root33434152&#45;&gt;root334341524348</title>
<path fill="none" stroke="#32cd32" d="M295.2258,-177.959C303.1277,-165.4726 315.2669,-149.4885 330.1547,-140.2 357.7372,-122.9912 394.2944,-115.8902 421.3583,-112.9779"/>
<polygon fill="#32cd32" stroke="#32cd32" points="421.9582,-116.4373 431.5909,-112.0258 421.3096,-109.4674 421.9582,-116.4373"/>
<text text-anchor="middle" x="364.181" y="-144.2" font-family="Times,serif" font-size="14.00" fill="#000000">4348</text>
</g>
<!-- root3343415243484030 -->
<g id="node37" class="node">
<title>root3343415243484030</title>
<polygon fill="none" stroke="#ff0000" points="565.0504,-148 565.0504,-184 619.5504,-184 619.5504,-148 565.0504,-148"/>
<text text-anchor="middle" x="592.3004" y="-161.9" font-family="Times,serif" font-size="14.00" fill="#000000">278.33</text>
</g>
<!-- root334341524348&#45;&gt;root3343415243484030 -->
<g id="edge36" class="edge">
<title>root334341524348&#45;&gt;root3343415243484030</title>
<path fill="none" stroke="#32cd32" d="M485.6793,-122.1301C505.7483,-130.3876 533.342,-141.7412 555.4296,-150.8293"/>
<polygon fill="#32cd32" stroke="#32cd32" points="554.2518,-154.1293 564.8314,-154.6977 556.9154,-147.6559 554.2518,-154.1293"/>
<text text-anchor="middle" x="533.0504" y="-150.2" font-family="Times,serif" font-size="14.00" fill="#000000">4030</text>
</g>
<!-- root3343415243484050 -->
<g id="node39" class="node">
<title>root3343415243484050</title>
<polygon fill="none" stroke="#ff0000" points="565.0504,-93 565.0504,-129 619.5504,-129 619.5504,-93 565.0504,-93"/>
<text text-anchor="middle" x="592.3004" y="-106.9" font-family="Times,serif" font-size="14.00" fill="#000000">278.52</text>
</g>
<!-- root334341524348&#45;&gt;root3343415243484050 -->
<g id="edge38" class="edge">
<title>root334341524348&#45;&gt;root3343415243484050</title>
<path fill="none" stroke="#32cd32" d="M485.6793,-111C505.4783,-111 532.6009,-111 554.5352,-111"/>
<polygon fill="#32cd32" stroke="#32cd32" points="554.8315,-114.5001 564.8314,-111 554.8314,-107.5001 554.8315,-114.5001"/>
<text text-anchor="middle" x="533.0504" y="-115.2" font-family="Times,serif" font-size="14.00" fill="#000000">4050</text>
</g>
<!-- root3343415243485241 -->
<g id="node41" class="node">
<title>root3343415243485241</title>
<polygon fill="none" stroke="#ff0000" points="565.3004,-38 565.3004,-74 619.3004,-74 619.3004,-38 565.3004,-38"/>
<text text-anchor="middle" x="592.3004" y="-51.9" font-family="Times,serif" font-size="14.00" fill="#000000">39.96</text>
</g>
<!-- root334341524348&#45;&gt;root3343415243485241 -->
<g id="edge40" class="edge">
<title>root334341524348&#45;&gt;root3343415243485241</title>
<path fill="none" stroke="#32cd32" d="M485.6793,-99.8699C505.8812,-91.5577 533.7078,-80.1083 555.8677,-70.9905"/>
<polygon fill="#32cd32" stroke="#32cd32" points="557.3742,-74.1554 565.2902,-67.1135 554.7106,-67.6819 557.3742,-74.1554"/>
<text text-anchor="middle" x="533.0504" y="-89.2" font-family="Times,serif" font-size="14.00" fill="#000000">5241</text>
</g>
<!-- root33434152434840301232 -->
<g id="node38" class="node">
<title>root33434152434840301232</title>
<ellipse fill="none" stroke="#0000ff" cx="768.1371" cy="-166" rx="47.0014" ry="18"/>
<text text-anchor="middle" x="768.1371" y="-161.8" font-family="Times,serif" font-size="14.00" fill="#000000"> 278.33✅</text>
</g>
<!-- root3343415243484030&#45;&gt;root33434152434840301232 -->
<g id="edge37" class="edge">
<title>root3343415243484030&#45;&gt;root33434152434840301232</title>
<path fill="none" stroke="#32cd32" d="M619.7749,-166C643.9865,-166 680.0517,-166 710.5606,-166"/>
<polygon fill="#32cd32" stroke="#32cd32" points="710.669,-169.5001 720.669,-166 710.669,-162.5001 710.669,-169.5001"/>
<text text-anchor="middle" x="670.2187" y="-170.2" font-family="Times,serif" font-size="14.00" fill="#000000">1232将死</text>
</g>
<!-- root33434152434840501252 -->
<g id="node40" class="node">
<title>root33434152434840501252</title>
<ellipse fill="none" stroke="#0000ff" cx="768.1371" cy="-111" rx="47.0014" ry="18"/>
<text text-anchor="middle" x="768.1371" y="-106.8" font-family="Times,serif" font-size="14.00" fill="#000000"> 278.52✅</text>
</g>
<!-- root3343415243484050&#45;&gt;root33434152434840501252 -->
<g id="edge39" class="edge">
<title>root3343415243484050&#45;&gt;root33434152434840501252</title>
<path fill="none" stroke="#32cd32" d="M619.7749,-111C643.9865,-111 680.0517,-111 710.5606,-111"/>
<polygon fill="#32cd32" stroke="#32cd32" points="710.669,-114.5001 720.669,-111 710.669,-107.5001 710.669,-114.5001"/>
<text text-anchor="middle" x="670.2187" y="-115.2" font-family="Times,serif" font-size="14.00" fill="#000000">1252将死</text>
</g>
<!-- root33434152434852411210 -->
<g id="node42" class="node">
<title>root33434152434852411210</title>
<text text-anchor="middle" x="768.1371" y="-57.8" font-family="Times,serif" font-size="14.00" fill="#000000">♻️</text>
</g>
<!-- root3343415243485241&#45;&gt;root33434152434852411210 -->
<g id="edge41" class="edge">
<title>root3343415243485241&#45;&gt;root33434152434852411210</title>
<path fill="none" stroke="#d3d3d3" stroke-dasharray="1,5" d="M619.3895,-56.9244C653.8595,-58.1006 712.7981,-60.1117 745.1705,-61.2163"/>
<polyline fill="none" stroke="#d3d3d3" points="755.4295,-61.5664 745.4353,-61.2253 "/>
<path fill="none" stroke="#d3d3d3" d="M750.6029,-56.3987C757.2572,-56.6261 756.9331,-66.6203 750.2618,-66.3929"/>
<text text-anchor="middle" x="670.2187" y="-63.2" font-family="Times,serif" font-size="14.00" fill="#000000">1210</text>
</g>
<!-- root33434152434852414841 -->
<g id="node43" class="node">
<title>root33434152434852414841</title>
<ellipse fill="none" stroke="#0000ff" cx="768.1371" cy="-18" rx="42.3433" ry="18"/>
<text text-anchor="middle" x="768.1371" y="-13.8" font-family="Times,serif" font-size="14.00" fill="#000000"> 39.96✅</text>
</g>
<!-- root3343415243485241&#45;&gt;root33434152434852414841 -->
<g id="edge42" class="edge">
<title>root3343415243485241&#45;&gt;root33434152434852414841</title>
<path fill="none" stroke="#32cd32" d="M619.618,-42.6203C625.4305,-40.1803 631.6092,-37.8794 637.5504,-36.2 662.8957,-29.0359 691.8381,-24.6351 716.024,-21.9608"/>
<polygon fill="#32cd32" stroke="#32cd32" points="716.4887,-25.4315 726.0738,-20.9174 715.7658,-18.4689 716.4887,-25.4315"/>
<text text-anchor="middle" x="670.2187" y="-41.2" font-family="Times,serif" font-size="14.00" fill="#000000">4841多得士</text>
</g>
</g>
</svg>
