<?xml version="1.0" encoding="UTF-8" standalone="no"?>
<!DOCTYPE svg PUBLIC "-//W3C//DTD SVG 1.1//EN"
 "http://www.w3.org/Graphics/SVG/1.1/DTD/svg11.dtd">
<!-- Generated by graphviz version 2.40.1 (20161225.0304)
 -->
<!-- Title: tree Pages: 1 -->
<svg width="431pt" height="231pt"
 viewBox="0.00 0.00 430.82 231.20" xmlns="http://www.w3.org/2000/svg" xmlns:xlink="http://www.w3.org/1999/xlink">
<g id="graph0" class="graph" transform="scale(1 1) rotate(0) translate(4 227.2)">
<title>tree</title>
<polygon fill="#ffffff" stroke="transparent" points="-4,4 -4,-227.2 426.8153,-227.2 426.8153,4 -4,4"/>
<!-- root -->
<g id="node1" class="node">
<title>root</title>
<polygon fill="none" stroke="#000000" points="76.2322,-111.9442 76.2322,-126.8558 53.8816,-137.4 22.2731,-137.4 -.0775,-126.8558 -.0775,-111.9442 22.2731,-101.4 53.8816,-101.4 76.2322,-111.9442"/>
<text text-anchor="middle" x="38.0773" y="-115.2" font-family="Times,serif" font-size="14.00" fill="#000000">开始</text>
</g>
<!-- root3332 -->
<g id="node2" class="node">
<title>root3332</title>
<polygon fill="none" stroke="#0000ff" points="140.1547,-145.4 140.1547,-181.4 194.1547,-181.4 194.1547,-145.4 140.1547,-145.4"/>
<text text-anchor="middle" x="167.1547" y="-159.3" font-family="Times,serif" font-size="14.00" fill="#000000">&#45;24.46</text>
</g>
<!-- root&#45;&gt;root3332 -->
<g id="edge1" class="edge">
<title>root&#45;&gt;root3332</title>
<path fill="none" stroke="#ff00ff" stroke-dasharray="5,2" d="M69.6532,-130.1636C87.9575,-136.4032 111.0973,-144.2911 130.2404,-150.8166"/>
<polygon fill="#ff00ff" stroke="#ff00ff" points="129.2454,-154.1752 139.8399,-154.0889 131.504,-147.5495 129.2454,-154.1752"/>
<text text-anchor="middle" x="108.1547" y="-151.6" font-family="Times,serif" font-size="14.00" fill="#000000">3332</text>
</g>
<!-- root8030 -->
<g id="node5" class="node">
<title>root8030</title>
<polygon fill="none" stroke="#0000ff" points="140.1547,-74.4 140.1547,-110.4 194.1547,-110.4 194.1547,-74.4 140.1547,-74.4"/>
<text text-anchor="middle" x="167.1547" y="-88.3" font-family="Times,serif" font-size="14.00" fill="#000000">0.25</text>
</g>
<!-- root&#45;&gt;root8030 -->
<g id="edge4" class="edge">
<title>root&#45;&gt;root8030</title>
<path fill="none" stroke="#ff00ff" stroke-dasharray="5,2" d="M72.0593,-109.893C79.3209,-108.0128 86.9686,-106.1453 94.1547,-104.6 105.6962,-102.1181 118.3559,-99.8463 129.8446,-97.9534"/>
<polygon fill="#ff00ff" stroke="#ff00ff" points="130.6802,-101.3643 140.0006,-96.3265 129.5729,-94.4524 130.6802,-101.3643"/>
<text text-anchor="middle" x="108.1547" y="-108.6" font-family="Times,serif" font-size="14.00" fill="#000000">8030</text>
</g>
<!-- root33324132 -->
<g id="node3" class="node">
<title>root33324132</title>
<polygon fill="none" stroke="#ff0000" points="258.1547,-185.4 258.1547,-221.4 312.1547,-221.4 312.1547,-185.4 258.1547,-185.4"/>
<text text-anchor="middle" x="285.1547" y="-199.3" font-family="Times,serif" font-size="14.00" fill="#000000">&#45;24.46</text>
</g>
<!-- root3332&#45;&gt;root33324132 -->
<g id="edge2" class="edge">
<title>root3332&#45;&gt;root33324132</title>
<path fill="none" stroke="#ff00ff" stroke-dasharray="5,2" d="M194.2263,-172.5768C210.1524,-177.9755 230.5202,-184.8798 247.9403,-190.7849"/>
<polygon fill="#ff00ff" stroke="#ff00ff" points="247.2061,-194.2317 257.8004,-194.1274 249.4534,-187.6022 247.2061,-194.2317"/>
<text text-anchor="middle" x="226.1547" y="-190.6" font-family="Times,serif" font-size="14.00" fill="#000000">4132</text>
</g>
<!-- root333241328030 -->
<g id="node4" class="node">
<title>root333241328030</title>
<text text-anchor="middle" x="399.485" y="-204.2" font-family="Times,serif" font-size="14.00" fill="#000000">&#45;24.46❎</text>
</g>
<!-- root33324132&#45;&gt;root333241328030 -->
<g id="edge3" class="edge">
<title>root33324132&#45;&gt;root333241328030</title>
<path fill="none" stroke="#ff00ff" stroke-dasharray="5,2" d="M312.2494,-204.5849C328.3264,-205.288 348.8394,-206.1851 365.9342,-206.9327"/>
<polygon fill="#ff00ff" stroke="#ff00ff" points="365.9228,-210.4355 376.0662,-207.3758 366.2287,-203.4422 365.9228,-210.4355"/>
<text text-anchor="middle" x="344.1547" y="-210.6" font-family="Times,serif" font-size="14.00" fill="#000000">8030</text>
</g>
<!-- root80303239 -->
<g id="node6" class="node">
<title>root80303239</title>
<polygon fill="none" stroke="#ff0000" points="258.1547,-74.4 258.1547,-110.4 312.1547,-110.4 312.1547,-74.4 258.1547,-74.4"/>
<text text-anchor="middle" x="285.1547" y="-88.3" font-family="Times,serif" font-size="14.00" fill="#000000">24.70</text>
</g>
<!-- root8030&#45;&gt;root80303239 -->
<g id="edge5" class="edge">
<title>root8030&#45;&gt;root80303239</title>
<path fill="none" stroke="#32cd32" d="M194.2263,-92.4C210.0035,-92.4 230.1399,-92.4 247.4511,-92.4"/>
<polygon fill="#32cd32" stroke="#32cd32" points="247.8005,-95.9001 257.8004,-92.4 247.8004,-88.9001 247.8005,-95.9001"/>
<text text-anchor="middle" x="226.1547" y="-96.6" font-family="Times,serif" font-size="14.00" fill="#000000">3239</text>
<text text-anchor="middle" x="215.2192" y="-79.8" font-family="Times,serif" font-size="14.00" fill="#000000">✂️</text>
</g>
<!-- root80304130 -->
<g id="node11" class="node">
<title>root80304130</title>
<polygon fill="none" stroke="#ff0000" points="258.1547,-7.4 258.1547,-43.4 312.1547,-43.4 312.1547,-7.4 258.1547,-7.4"/>
<text text-anchor="middle" x="285.1547" y="-21.3" font-family="Times,serif" font-size="14.00" fill="#000000">0.25</text>
</g>
<!-- root8030&#45;&gt;root80304130 -->
<g id="edge10" class="edge">
<title>root8030&#45;&gt;root80304130</title>
<path fill="none" stroke="#32cd32" d="M194.2263,-77.0288C210.4501,-67.817 231.2832,-55.9881 248.9139,-45.9774"/>
<polygon fill="#32cd32" stroke="#32cd32" points="250.8326,-48.9129 257.8004,-40.9316 247.3762,-42.8256 250.8326,-48.9129"/>
<text text-anchor="middle" x="226.1547" y="-68.6" font-family="Times,serif" font-size="14.00" fill="#000000">4130</text>
</g>
<!-- root803032393039 -->
<g id="node7" class="node">
<title>root803032393039</title>
<text text-anchor="middle" x="399.485" y="-164.2" font-family="Times,serif" font-size="14.00" fill="#000000"> 24.70✅</text>
</g>
<!-- root80303239&#45;&gt;root803032393039 -->
<g id="edge6" class="edge">
<title>root80303239&#45;&gt;root803032393039</title>
<path fill="none" stroke="#32cd32" d="M301.5495,-110.5323C309.6268,-118.7908 319.8339,-128.2866 330.1547,-135.4 341.8466,-143.4585 355.8126,-150.5244 368.1357,-156.0284"/>
<polygon fill="#32cd32" stroke="#32cd32" points="367.0224,-159.3596 377.5915,-160.0969 369.789,-152.9295 367.0224,-159.3596"/>
<text text-anchor="middle" x="344.1547" y="-154.6" font-family="Times,serif" font-size="14.00" fill="#000000">3039</text>
</g>
<!-- root803032393339 -->
<g id="node8" class="node">
<title>root803032393339</title>
<text text-anchor="middle" x="399.485" y="-124.2" font-family="Times,serif" font-size="14.00" fill="#000000">♻️</text>
</g>
<!-- root80303239&#45;&gt;root803032393339 -->
<g id="edge7" class="edge">
<title>root80303239&#45;&gt;root803032393339</title>
<path fill="none" stroke="#d3d3d3" stroke-dasharray="1,5" d="M312.2494,-100.9315C331.9923,-107.1481 358.4248,-115.4711 377.0017,-121.3205"/>
<polyline fill="none" stroke="#d3d3d3" points="386.6716,-124.3654 377.1332,-121.3619 "/>
<path fill="none" stroke="#d3d3d3" d="M383.4041,-118.0945C389.6879,-120.0968 386.8346,-129.6351 380.4007,-127.6328"/>
<text text-anchor="middle" x="344.1547" y="-118.6" font-family="Times,serif" font-size="14.00" fill="#000000">3339</text>
</g>
<!-- root803032394839 -->
<g id="node9" class="node">
<title>root803032394839</title>
<text text-anchor="middle" x="399.485" y="-84.2" font-family="Times,serif" font-size="14.00" fill="#000000">♻️</text>
</g>
<!-- root80303239&#45;&gt;root803032394839 -->
<g id="edge8" class="edge">
<title>root80303239&#45;&gt;root803032394839</title>
<path fill="none" stroke="#d3d3d3" stroke-dasharray="1,5" d="M312.2721,-90.5154C318.165,-90.161 324.3668,-89.83 330.1547,-89.6 345.5666,-88.9874 362.918,-88.6875 376.407,-88.5406"/>
<polyline fill="none" stroke="#d3d3d3" points="386.7019,-88.4498 376.7023,-88.5381 "/>
<path fill="none" stroke="#d3d3d3" d="M381.658,-83.4941C388.3266,-83.4352 388.4105,-93.4348 381.7463,-93.4937"/>
<text text-anchor="middle" x="344.1547" y="-93.6" font-family="Times,serif" font-size="14.00" fill="#000000">4839</text>
</g>
<!-- root803032394939 -->
<g id="node10" class="node">
<title>root803032394939</title>
<text text-anchor="middle" x="399.485" y="-44.2" font-family="Times,serif" font-size="14.00" fill="#000000">♻️</text>
</g>
<!-- root80303239&#45;&gt;root803032394939 -->
<g id="edge9" class="edge">
<title>root80303239&#45;&gt;root803032394939</title>
<path fill="none" stroke="#d3d3d3" stroke-dasharray="1,5" d="M312.2602,-76.1378C318.0451,-73.0456 324.2068,-70.0236 330.1547,-67.6 345.2133,-61.464 362.8873,-56.6032 376.6215,-53.3076"/>
<polyline fill="none" stroke="#d3d3d3" points="386.6661,-51.0057 376.9188,-53.2395 "/>
<path fill="none" stroke="#d3d3d3" d="M380.6755,-47.2489C387.2296,-45.7597 389.3518,-55.507 382.9094,-56.9962"/>
<text text-anchor="middle" x="344.1547" y="-71.6" font-family="Times,serif" font-size="14.00" fill="#000000">4939</text>
</g>
<!-- root803041303332 -->
<g id="node12" class="node">
<title>root803041303332</title>
<text text-anchor="middle" x="399.485" y="-4.2" font-family="Times,serif" font-size="14.00" fill="#000000"> 0.25✅</text>
</g>
<!-- root80304130&#45;&gt;root803041303332 -->
<g id="edge11" class="edge">
<title>root80304130&#45;&gt;root803041303332</title>
<path fill="none" stroke="#32cd32" d="M312.384,-14.2777C318.1599,-12.3629 324.2867,-10.6526 330.1547,-9.6 343.0768,-7.2821 357.5709,-6.7213 369.9526,-6.8411"/>
<polygon fill="#32cd32" stroke="#32cd32" points="370.1136,-10.3461 380.1972,-7.0946 370.2869,-3.3482 370.1136,-10.3461"/>
<text text-anchor="middle" x="344.1547" y="-14.6" font-family="Times,serif" font-size="14.00" fill="#000000">3332</text>
</g>
</g>
</svg>
